<?xml version="1.0" encoding="utf-8"?>
<!-- Generator: Adobe Illustrator 28.1.0, SVG Export Plug-In . SVG Version: 6.00 Build 0)  -->
<svg version="1.1" xmlns="http://www.w3.org/2000/svg" xmlns:xlink="http://www.w3.org/1999/xlink" x="0px" y="0px"
	 viewBox="0 0 545 577" style="enable-background:new 0 0 545 577;" xml:space="preserve">
<style type="text/css">
	.st0{fill:#73C7EF;}
	.st1{fill:#AEE4FD;}
	.st2{fill:#FE3C3C;}
	.st3{fill:#373C41;}
	.st4{fill:#272B2D;}
	.st5{fill:#DB1528;}
	.st6{fill:#FDF9FA;}
	.st7{fill:#FD955A;}
	.st8{fill:#EE6A31;}
	.st9{fill:#FD3B3B;}
	.st10{fill:#BE1624;}
	.st11{fill:#FEFEFE;}
	.st12{fill:#FDBD81;}
	.st13{display:none;}
	.st14{display:inline;}
	.st15{fill:#FFFFFF;}
</style>
<g id="Layer_1">
	<g id="Background">
		<path class="st0" d="M545,288.5c0,14.7-1,29.2-3.1,43.3c-8.6,60.7-35.1,115.2-73.6,157.3c-49.5,54.2-119,87.9-195.9,87.9
			c-29.1,0-57.2-4.8-83.5-13.8c-42.8-14.6-81-40.1-111.7-73.4C29.5,437.8,0,366.8,0,288.5c0-73.6,26.1-140.9,69-191.8
			C87.2,75,108.4,56.3,132,41.2C173,15.1,221.1,0,272.5,0c147.1,0,267,123.4,272.3,277.7C544.9,281.3,545,284.9,545,288.5z"/>
		<path class="st1" d="M544.8,277.7c-27,107.1-124,186.5-239.5,186.5c-136.4,0-247-110.6-247-246.9c0-68.9,28.2-131.2,73.7-176
			C173,15.1,221.1,0,272.5,0C419.6,0,539.4,123.4,544.8,277.7z"/>
	</g>
	<g id="Body">
		<path class="st2" d="M468.3,489.1c-49.5,54.2-119,87.9-195.9,87.9c-29.1,0-57.2-4.8-83.5-13.8c5.9-16.3,15.7-29.8,30.1-40.1
			c0.1,1.8,0.2,3.6,0.3,5.4c0.3,6.4-0.8,12.8,0.8,19.2c-2.5,4.3-1.5,8.8-0.5,13.3c0.6,2.6,2.1,3.9,4.9,4c2.9,0.1,5.5-0.5,6.3-3.5
			c1.3-4.6,1.9-9.2-0.4-13.8c0.8-2.4,0.9-4.8,0.9-7.3c0-8.8,0.1-17.5,0.2-26.3c1.1-0.4,2.2-0.6,3.3-1.1c11.5-5.3,23.7-8.4,36.3-8.8
			c15.4-0.5,30.7,0,46.1-1.2c0.1,12.7,0.2,25.5,0.2,38.2c0,2.3-0.1,4.6,1,6.8c-1.9,3.6-0.6,7.4-0.8,11.1c-0.2,3.5,1.6,5.5,5.2,5.9
			c3.7,0.4,5.9-1.7,6.3-4.8c0.5-4.3,1.1-8.8-0.4-13.1c0.2-2.1,0.6-4.2,0.6-6.4c0.1-13.2,0.1-26.4,0.2-39.6
			c16.5-0.8,32.4-4.8,47.3-11.8c23.1-11,34.9-29.3,34.7-55.2c-0.1-8.3-1.2-16.4-2.2-24.6c13.4,2.4,24.7,9.2,35,17.8
			c10.6,10.8,18.2,23.2,21.7,38C468.1,473.1,467.9,481.1,468.3,489.1z"/>
		<path class="st3" d="M398.7,73.6c-0.3,13.6-0.5,27.2,0.1,40.8c-0.1,4-0.2,7.9-0.3,11.9c-0.3,12.4-4.8,22.9-14.5,30.8
			c-2.4,2-5.1,3.6-7.6,5.5c-6.9,2-13.9,3.6-21.1,3.1c-11,0-22,0-32.9,0c-28.4-0.1-56.9-0.1-85.3-0.2c0.5-14.4-1.3-28.9,1.1-43.3
			c2.3-14.1,9.4-25.6,20.4-34.8c7-5.8,15.1-9.1,23.5-12.3c-18-0.3-35.9-0.3-53.8-0.4c-1.7,0-3.7,0.8-5.1-1
			C281.5,73.6,340.1,73.6,398.7,73.6z"/>
		<path class="st4" d="M222.9,73.6c1.4,1.7,3.4,1,5.1,1c17.9,0,35.8,0,53.8,0.4c-8.4,3.2-16.6,6.5-23.5,12.3
			c-11,9.2-18,20.7-20.4,34.8c-2.3,14.3-0.5,28.8-1.1,43.3c-9.8,0-19.7,0.5-29.4,0c-13.1-0.6-25.4,8.6-24.8,24.8
			c0.6,18.8,0.2,37.6,0.1,56.4c0,9.6-4.7,14.8-13.7,15.7c-0.1-4.7-0.2-9.4-0.3-14c0-3.3,0-6.6,0-9.9c0-5.7,0-11.3,0.1-17
			c0.2-0.2,0.2-0.4,0-0.6c0-0.3,0-0.6,0-1c0.1-28.2,0.1-56.4,0.2-84.5c0-4.1,0.2-8.2,0.7-12.4c1.2-8.9,5.7-16.4,9.3-24.3
			c4.3-3.7,7.5-8.4,12-11.8c8.1-6.2,17-10.3,27-12c0.8-0.1,1.7,0.1,2-1C220.9,73.6,221.9,73.6,222.9,73.6z"/>
		<path class="st5" d="M219.2,523.1c-14.4,10.4-24.3,23.9-30.1,40.1c-42.8-14.6-81-40.1-111.7-73.4c0.5-9.5,0.2-19.2,3.1-28.4
			c9.4-29.3,29.5-46.7,59.4-53.1c3.4-0.7,6.8-1.4,10.2-2.1c0.3,6.7-0.8,13.4-0.1,20.2c1.3,12.3,5.3,23.6,14.2,32.1
			c14.9,14.3,33.7,19.7,53.7,21.7c0.4,0.3,0.9,0.6,1.3,0.9C219.7,495,219.6,509.1,219.2,523.1z"/>
		<path class="st5" d="M399.8,407.1c3.3,0.8,6.6,1.6,9.9,2.3c1,8.2,2.2,16.3,2.2,24.6c0.2,26-11.6,44.3-34.7,55.2
			c-14.9,7.1-30.7,11-47.3,11.8c0-6.7,0-13.3,0-20c0.8,0,1.6-0.2,2-1c16.9-1.5,32.9-5.9,46.9-15.8c11-7.8,17.7-18.2,20.3-31.7
			C400.7,424,400.6,415.6,399.8,407.1z"/>
		<path class="st5" d="M317.4,503c-15.3,1.2-30.7,0.7-46.1,1.2c-12.6,0.4-24.8,3.5-36.3,8.8c-1,0.5-2.2,0.7-3.3,1.1
			c0-10.4,0-20.7,0-31.1c21.3,1.2,42.7,1.3,64,1c0.7,0,1.3,0,2,0c4.3-0.3,8.7-0.6,13-1c2.2,0,4.4,0,6.6,0.1
			C317.4,489.7,317.4,496.4,317.4,503z"/>
		<path class="st6" d="M231.8,483c0,10.4,0,20.7,0,31.1c-0.1,8.8-0.2,17.5-0.2,26.3c0,2.5-0.1,5-0.9,7.3c-3.5,3.3-6.9,3.4-10.4-0.1
			c-1.6-6.3-0.5-12.8-0.8-19.2c-0.1-1.8-0.2-3.6-0.3-5.4c0.5-14,0.5-28,0-42c0-0.3,0-0.6,0-1c0.1-1.6,0.2-3.3,0.3-4.9
			c0.3-3.5,2-6,5.8-6.1c4.1-0.1,5.9,2.4,6.3,6.1C231.8,477.8,231.7,480.4,231.8,483z"/>
		<path class="st6" d="M317.4,503c0-6.6,0-13.3,0-19.9c0-1.3,0-2.7,0-4c0.1-1.1,0.2-2.3,0.2-3.4c0-3.8,1.7-6.4,5.7-6.6
			c4.3-0.1,6,2.6,6.3,6.6c0.1,1.5,0.1,2.9,0.2,4.4c0,0.3,0,0.7,0,1c0,6.7,0,13.3,0,20c-0.1,13.2-0.1,26.4-0.2,39.6
			c0,2.1-0.4,4.2-0.6,6.4c-3.1,4.1-6.6,4.2-10.4,0.9c-1.2-2.1-1-4.5-1-6.8C317.6,528.5,317.5,515.7,317.4,503z"/>
		<path class="st5" d="M220.3,547.7c3.4,3.4,6.9,3.4,10.4,0.1c2.2,4.5,1.7,9.2,0.4,13.8c-0.8,3-3.4,3.6-6.3,3.5
			c-2.7-0.1-4.3-1.5-4.9-4C218.8,556.5,217.8,552,220.3,547.7z"/>
		<path class="st5" d="M318.7,548c3.8,3.3,7.2,3.1,10.4-0.9c1.6,4.3,1,8.8,0.4,13.1c-0.4,3.2-2.7,5.2-6.3,4.8
			c-3.6-0.4-5.4-2.4-5.2-5.9C318,555.4,316.8,551.5,318.7,548z"/>
		<path class="st7" d="M183.9,349.1c-2.6-6.8-6.5-12.9-8.9-19.7c-3.3-9.4-5.1-19.1-6.1-28.9c0-12.7,0.1-25.4,0.1-38.1
			c9.1-0.9,13.7-6.1,13.7-15.7c0.1-18.8,0.5-37.6-0.1-56.4c-0.5-16.1,11.7-25.4,24.8-24.8c9.8,0.4,19.6,0,29.4,0
			c28.4,0.1,56.9,0.1,85.3,0.2c11,0,22,0,32.9,0c1.5,2.6,3.5,4.9,4.3,7.9c-38.4,0-76.9-0.1-115.3,0c-19,0-35.2,12.6-39.3,31.1
			c-3.7,16.6-1.9,33.4-1.4,50.1c0.4,10.5,1.2,21,0.1,31.3c-1.1,10.6-0.4,21,1.8,31.1c7.9,37.1,29.4,63.5,64.9,78
			c1.5,0.6,3.3,0.8,3.7,2.8c-4.3,0.2-8.5,0.1-12.7-0.3c-8.4-0.8-16.2-3.8-24.4-5.4c-9.6-4.4-18.8-9.5-27.7-15.3
			C200,368.3,191.3,359.3,183.9,349.1z"/>
		<path class="st4" d="M359.5,173.5c-0.8-3-2.8-5.3-4.3-7.9c7.3,0.6,14.2-1.1,21.1-3.1c0,17.1,0.1,34.2,0.1,51.2c0,2,0.1,4,0.2,6
			c0,6.5,0,13.1,0,19.6c0,3.7-0.1,7.4-0.1,11.1c-0.2,0.2-0.2,0.4-0.2,0.7c-0.8,1.7-0.2,3.6-0.5,5.4c-0.2,1.6,0.9,3.8-0.9,4.6
			c-1.9,0.9-4.2,0.4-6.1-0.9c-4.5-3.1-6.4-7.4-6.4-12.8c0.1-19.5,0-38.9,0-58.4C362.6,183.7,361.9,178.4,359.5,173.5z"/>
		<path class="st7" d="M157,277.4c-7.7-3.3-11.2-9.6-12-17.4c-0.6-6.3-0.4-12.6,0-18.9c0.7-11.5,10.1-19.7,23.7-21.3
			c0,0.3,0,0.6,0,1c-0.1,0-0.2,0.1-0.3,0.1c0.1,0.2,0.2,0.3,0.3,0.5c0,5.7,0,11.3-0.1,17c-7.4,0.8-9.8,4-9.6,12.5
			c-8.4,8.4-8.9,14.5-2.3,24.7C157.2,276.2,157.5,276.7,157,277.4z"/>
		<path class="st6" d="M157,277.4c0.4-0.7,0.1-1.2-0.2-1.8c-6.6-10.2-6.1-16.3,2.3-24.7c3-1.5,6.1-3.1,9.6-2.6
			c0.1,4.7,0.2,9.4,0.3,14c0,12.7-0.1,25.4-0.1,38.1c-1.5,2.2-3.3,3.7-6.1,2.7c-2.6-1-2.7-3.3-2.8-5.7c-0.4-6.2,1.1-12.4-0.9-18.5
			C158.9,277.6,158.5,276.7,157,277.4L157,277.4z"/>
		<path class="st8" d="M168.7,248.3c-3.6-0.5-6.6,1.1-9.6,2.6c-0.2-8.6,2.2-11.7,9.6-12.5C168.7,241.6,168.7,245,168.7,248.3z"/>
		<path class="st8" d="M168.7,221.3c-0.1-0.2-0.2-0.3-0.3-0.5c0.1,0,0.2-0.1,0.3-0.1C168.9,220.9,168.9,221.1,168.7,221.3z"/>
		<path class="st2" d="M183.9,349.1c7.4,10.2,16.2,19.2,25.3,27.9c-10.2,2.5-17.5,8.4-19.7,18.8c-1.4,6.5-1.4,13.4,0,19.8
			c3.4,16.4,12.3,29.5,25.6,39.6c25.8,19.5,54.8,24.4,85.7,16.6c26.1-6.6,46.8-20.9,57.2-47.1c3.7-9.4,4.8-19.4,2.5-29.2
			c-2.8-11.8-11.8-17-22.9-19.4c3.6-3.6,7.2-7.2,10.9-10.7c5.9-5.6,9.7-12.9,14.9-19c7.7,6.4,14.8,13.4,20.5,21.7
			c3.5,5.1,7.2,10.2,9.2,16.1c2.5,7.6,6.5,14.7,6.7,23c0.8,8.6,0.9,16.9-0.7,25.6c-2.6,13.5-9.3,24-20.3,31.7
			c-14,9.9-30,14.3-46.9,15.8c-0.7,0-1.3,0-2,0c-0.1-1.5-0.1-2.9-0.2-4.4c-0.3-3.9-2-6.7-6.3-6.6c-4,0.1-5.7,2.7-5.7,6.6
			c0,1.1-0.1,2.3-0.2,3.4c-3.1-0.1-6,0-6.6,4c-4.3,0.3-8.7,0.6-13,1c-0.3-0.5-0.4-1.4-0.8-1.4c-1-0.2-1.1,0.7-1.2,1.4
			c-21.4,0.3-42.7,0.2-64-1c-0.1-2.6,0-5.3-0.3-7.9c-0.4-3.7-2.2-6.2-6.3-6.1c-3.8,0.1-5.4,2.6-5.8,6.1c-0.1,1.6-0.2,3.3-0.3,4.9
			c-0.4,0-0.9,0-1.3,0c-20-2-38.9-7.4-53.7-21.7c-8.9-8.5-12.9-19.8-14.2-32.1c-0.7-6.8,0.4-13.5,0.1-20.2c1.9-9,3.9-18.1,8.9-26
			c4-6.5,6.8-14,13.3-18.8c1.1-0.8,1.5-2.5,2.2-3.8C177.5,354.7,180.7,351.9,183.9,349.1z"/>
		<path class="st9" d="M217.8,480.1c0.4,0,0.9,0,1.3,0c0,0.3,0,0.6,0,1C218.7,480.7,218.3,480.4,217.8,480.1z"/>
		<path class="st7" d="M157,277.3c1.5-0.6,2,0.3,2.1,1.5C158.2,278.5,157.2,278.5,157,277.3z"/>
		<path class="st7" d="M376.7,239.4c0-6.5,0-13.1,0-19.6c15.4,1.6,24,11,23.9,26.4c0,5.8,0.9,11.7-1,17.3c-1.6,4.8-3.3,9.8-8.8,11.8
			c3.6-11,2.2-16.3-6.2-22.8C387.3,245.8,383.8,239.9,376.7,239.4z"/>
		<path class="st6" d="M384.6,252.5c8.4,6.5,9.8,11.8,6.2,22.8c-5.1,3.8-5.7,9.1-5.2,15c0.3,2.9-0.1,6,0.1,8.9
			c0.2,3.2-0.8,5.8-3.8,6.7c-2.8,0.8-4.5-1.4-5.9-3.5c-0.2-14.3-0.5-28.6,0.7-42.8c0.2-2.8-0.2-5.6-0.3-8.4c-0.1-0.3,0-0.5,0.2-0.7
			C379.5,250.4,382,251.6,384.6,252.5z"/>
		<path class="st9" d="M329.9,480.1c0.7,0,1.3,0,2,0c-0.5,0.8-1.2,0.9-2,1C329.9,480.7,329.9,480.4,329.9,480.1z"/>
		<path class="st9" d="M310.8,483c0.6-4,3.5-4.1,6.6-4c0,1.3,0,2.7,0,4C315.2,483.1,313,483,310.8,483z"/>
		<path class="st9" d="M295.8,484c0.1-0.7,0.2-1.7,1.2-1.4c0.3,0.1,0.5,0.9,0.8,1.4C297.2,484,296.5,484,295.8,484z"/>
		<path class="st5" d="M309,392.4c10-4.7,19.6-9.8,28.6-16.3c11.1,2.3,20.2,7.6,22.9,19.4c2.3,9.8,1.2,19.8-2.5,29.2
			c-10.4,26.2-31.1,40.5-57.2,47.1c-30.9,7.9-59.8,2.9-85.7-16.6c-13.3-10-22.2-23.2-25.6-39.6c-1.3-6.5-1.4-13.4,0-19.8
			c2.2-10.4,9.5-16.4,19.7-18.8c8.9,5.8,18.1,10.9,27.7,15.3c0,5.3,0,10.6,0.1,16c0,3.8-0.1,7.7-0.1,11.5
			c0.2,15.9,11.9,30.7,27.1,34.3c16.7,4,33.4-3.3,41-18c7.1-13.7,4.7-28.4,4-43C309.1,392.8,309.1,392.6,309,392.4z"/>
		<path class="st8" d="M236.9,408.2c0-5.3,0-10.6-0.1-16c8.2,1.7,16,4.6,24.4,5.4c4.3,0.4,8.5,0.5,12.7,0.3
			c10.1,1,19.6-1.8,29.3-4.1c1.4-0.3,2.9-0.6,4.4-0.9l0.2,0.2c0,1.9-1.4,3-2.7,4c-11.7,9.6-25.3,14.1-40.3,15
			C255.3,412.7,246.2,409.9,236.9,408.2z"/>
		<path class="st8" d="M384.6,252.5c-2.6-0.9-5.2-2.1-8-2c0-3.7,0.1-7.4,0.1-11.1C383.8,239.9,387.3,245.8,384.6,252.5z"/>
		<path class="st7" d="M258.7,280.7c2.3-10.2,4.5-22,8.3-33.2c1-3,4-3.1,6.7-3.1c3.1,0,5.2,1.6,5.9,4.4c2.8,10.6,5.8,21.1,7.8,31.8
			c1.2,6.3-1.4,12.3-6.9,16.1c-5,3.5-10.3,3.4-15.3-0.2C260.5,293,258.9,287.9,258.7,280.7z"/>
		<path class="st2" d="M288.9,345.4c-16,9-37.8,2.4-46.9-14.1c3.6-4,8.9-5.3,13-8.5c5-0.4,9.9-0.4,14.9,0c0.6,2,2.6,1.8,4,2.5
			C282.2,329.5,287.4,336.1,288.9,345.4z"/>
		<path class="st10" d="M288.9,345.4c-1.5-9.3-6.7-15.9-15-20.1c-1.4-0.7-3.4-0.5-4-2.5c5.6-0.1,11.2-0.1,16.8-0.2
			c8.6,0,9.3-0.7,9.2-9.3c2.2-0.1,4.3-0.2,6.5-0.2c6.1,0,7.7,1.7,6.3,7.5C305.8,331.8,299.8,340.6,288.9,345.4z"/>
		<path class="st11" d="M295.8,313.3c0.1,8.7-0.6,9.3-9.2,9.3c-5.6,0-11.2,0.1-16.8,0.2c-5-0.4-9.9-0.4-14.9,0c-6-0.7-5.9-5-5.7-9.5
			C264.8,313.3,280.3,313.3,295.8,313.3z"/>
		<path class="st10" d="M249.3,313.3c-0.3,4.5-0.3,8.8,5.7,9.5c-4.1,3.2-9.4,4.5-13,8.5c-2.6-3.3-3.6-7.3-4.5-11.3
			c-1.1-4.9,0.4-6.7,5.4-6.8C245,313.1,247.1,313.2,249.3,313.3z"/>
		<path class="st8" d="M309,392.4c0.1,0.2,0.1,0.4,0,0.6c-0.4,0.1-0.8,0.2-1.2,0.2c0,0-0.2-0.2-0.2-0.2
			C308.1,392.8,308.5,392.6,309,392.4z"/>
		<path class="st7" d="M307.8,393.2c0.4-0.1,0.8-0.2,1.2-0.2c0.7,14.5,3.1,29.2-4,43c-7.7,14.7-24.3,22-41,18
			c-15.2-3.6-26.9-18.4-27.1-34.3c0-3.8,0-7.7,0.1-11.5c9.3,1.7,18.3,4.5,27.9,4c15-0.8,28.6-5.4,40.3-15
			C306.4,396.2,307.8,395.1,307.8,393.2z"/>
		<path class="st12" d="M376.4,251.1c-0.8,1.7-0.2,3.6-0.5,5.4c-0.2,1.6,0.9,3.8-0.9,4.6c-1.9,0.9-4.2,0.4-6.1-0.9
			c-4.5-3.1-6.4-7.4-6.4-12.8c0.1-19.5,0-38.9,0-58.4c0-5.4-0.7-10.6-3.1-15.5c-38.4,0-76.9-0.1-115.3,0c-19,0-35.2,12.6-39.3,31.1
			c-3.7,16.6-1.9,33.4-1.4,50.1c0.4,10.5,1.2,21,0.1,31.3c-1.1,10.6-0.4,21,1.8,31.1c7.9,37.1,29.4,63.5,64.9,78
			c1.5,0.6,3.3,0.8,3.8,2.8c10.1,1,19.6-1.8,29.3-4.1c1.4-0.3,2.9-0.6,4.4-0.9c0.5-0.2,0.9-0.4,1.4-0.6c10-4.7,19.6-9.8,28.6-16.3
			c3.6-3.6,7.2-7.2,10.9-10.7c5.9-5.6,9.7-12.9,14.9-19c0.5-1.4,0.8-2.9,1.5-4.2c6.5-12.5,10.2-25.7,11.2-39.8
			c-0.2-14.3-0.5-28.6,0.7-42.8C376.9,256.8,376.5,253.9,376.4,251.1z M273.8,244.4c3.1,0,5.2,1.6,5.9,4.4
			c2.8,10.6,5.8,21.1,7.8,31.8c1.2,6.3-1.4,12.3-6.9,16.1c-5,3.5-10.3,3.4-15.3-0.2c-4.8-3.5-6.4-8.6-6.6-15.8
			c2.3-10.2,4.5-22,8.3-33.2C268.1,244.5,271,244.4,273.8,244.4z M308.6,320.6c-2.8,11.2-8.8,20-19.7,24.8c-16,9-37.8,2.4-46.9-14.1
			c-2.6-3.3-3.6-7.3-4.5-11.3c-1.1-4.9,0.4-6.7,5.4-6.8c2.1,0,4.3,0.1,6.4,0.2c15.5,0,31,0,46.6,0c2.2-0.1,4.3-0.2,6.5-0.2
			C308.4,313.1,310,314.9,308.6,320.6z"/>
		<path class="st3" d="M244.5,233.2v22.9c0,4.7-3.8,8.5-8.5,8.5c-4.7,0-8.5-3.8-8.5-8.5v-22.9c0-4.7,3.8-8.5,8.5-8.5
			c2.3,0,4.5,1,6,2.5C243.5,228.7,244.5,230.8,244.5,233.2z"/>
		<path class="st7" d="M244.5,256.1v7.7c0,4.7-3.8,8.5-8.5,8.5c-4.7,0-8.5-3.8-8.5-8.5v-7.7c0,4.7,3.8,8.5,8.5,8.5
			C240.6,264.6,244.5,260.8,244.5,256.1z"/>
		<path class="st3" d="M319.1,233.2v22.9c0,4.7-3.8,8.5-8.5,8.5c-4.7,0-8.5-3.8-8.5-8.5v-22.9c0-4.7,3.8-8.5,8.5-8.5
			c2.3,0,4.5,1,6,2.5C318.1,228.7,319.1,230.8,319.1,233.2z"/>
		<path class="st7" d="M319.1,256.1v7.7c0,4.7-3.8,8.5-8.5,8.5c-4.7,0-8.5-3.8-8.5-8.5v-7.7c0,4.7,3.8,8.5,8.5,8.5
			C315.3,264.6,319.1,260.8,319.1,256.1z"/>
	</g>
</g>
<g id="Layer_3" class="st13">
	<g id="Right_Eyebrow" class="st14">
		<path class="st3" d="M248.6,217.2h-25.4c-4.6,0-8.3-3.8-8.3-8.3l0,0c0-4.6,3.8-8.3,8.3-8.3h25.4c4.6,0,8.3,3.8,8.3,8.3l0,0
			C256.9,213.5,253.2,217.2,248.6,217.2z"/>
	</g>
	<g id="Left_Eyebrow" class="st14">
		<path class="st3" d="M323.2,217.5h-25.3c-4.6,0-8.3-3.8-8.3-8.5l0,0c0-4.7,3.8-8.5,8.3-8.5h25.3c4.6,0,8.3,3.8,8.3,8.5l0,0
			C331.5,213.7,327.8,217.5,323.2,217.5z"/>
	</g>
</g>
<g id="Layer_2" class="st13">
	<g id="Right_Iris" class="st14">
		<path class="st15" d="M230.7,248.8L230.7,248.8c-1.8,0-3.2-1.5-3.2-3.2v-9c0-1.8,1.5-3.2,3.2-3.2l0,0c1.8,0,3.2,1.5,3.2,3.2v9
			C233.9,247.4,232.4,248.8,230.7,248.8z"/>
	</g>
	<g id="Left_Iris" class="st14">
		<path class="st15" d="M305.5,249.4L305.5,249.4c-1.9,0-3.5-1.5-3.5-3.4v-9.3c0-1.8,1.6-3.4,3.5-3.4l0,0c1.9,0,3.5,1.5,3.5,3.4v9.3
			C309,247.9,307.5,249.4,305.5,249.4z"/>
	</g>
</g>
</svg>
